<svg id="letter" xmlns="http://www.w3.org/2000/svg" viewBox="0 0 631.82 549.39"><defs><style>.cls-1{fill:#ffa6c9;}.cls-2{fill:#ffbdd7;}.cls-3{fill:#ffbfd8;}.cls-4{fill:#5bb58c;}.cls-5{fill:#ffcce0;}.cls-6{fill:#fff5f9;}.cls-7{font-size:20px;font-family:Poppins-Bold, Poppins;font-weight:700;}.cls-13,.cls-7{fill:#ff3075;}.cls-8{letter-spacing:1.59em;}.cls-10,.cls-13,.cls-9{font-size:15px;}.cls-10,.cls-9{font-family:Poppins-Light, Poppins;font-weight:300;}.cls-10{letter-spacing:2.13em;}.cls-11{font-size:25px;font-family:Anissa-Regular, Anissa;font-weight:400;fill:#000;}.cls-12{letter-spacing:1.19em;}.cls-13{font-family:Poppins-Regular, Poppins;}.cls-14{fill:#ff91a4;}</style></defs><path class="cls-1" d="M1600.53,333.3s14-55.83,30.91-63,7,49.24,2.35,58.13S1605.32,342.79,1600.53,333.3Z" transform="translate(-1043.24 -108.61)"/><path class="cls-2" d="M1608.5,266.9s-18.68,6.26-25.5,35.75-6.22,66.71,22.19,68.4,45-34.91,31.72-54.24S1621.53,267.13,1608.5,266.9Z" transform="translate(-1043.24 -108.61)"/><path class="cls-3" d="M1635,309.49s13.44-17.21,31.47-21.77,3.15,45.51-3.58,56.81-26.58,49.65-51.54,23.36S1635,309.49,1635,309.49Z" transform="translate(-1043.24 -108.61)"/><path class="cls-4" d="M1462.61,625.93s27.6-116.13,84.22-154.7,61.93-107.62,61.93-107.62l11.12,4.5a272.75,272.75,0,0,0-11.64,28.73c-5.07,15.21-13.66,46.39-54.94,82.4-66.73,58.21-82.48,137.07-77.72,151.94S1462.61,625.93,1462.61,625.93Z" transform="translate(-1043.24 -108.61)"/><path class="cls-5" d="M1647.5,276.15s-19.59-2-38,22.05-33.2,58.19-8,71.46,55.35-13.25,51.27-36.32S1659.28,281.74,1647.5,276.15Z" transform="translate(-1043.24 -108.61)"/><path class="cls-4" d="M1466.67,631.89s29.73-49.46,15-82.39c-18-40.32,2.22-85.41,2.22-85.41s-51.28,56.3-31.82,102.56S1466.67,631.89,1466.67,631.89Z" transform="translate(-1043.24 -108.61)"/><path class="cls-4" d="M1483.11,584.08s61.73-68.74,89.62-54.88c0,0-32,6-52.85,41.28-18.31,31-53.69,44.56-53.69,44.56Z" transform="translate(-1043.24 -108.61)"/><path class="cls-1" d="M1237.66,197.75s-20.9-53.63-11.24-69.27,34.23,36.09,35.55,46.06S1247.06,202.72,1237.66,197.75Z" transform="translate(-1043.24 -108.61)"/><path class="cls-2" d="M1205.74,139s-11.61,15.91-.11,43.91,33.52,58,57.67,43,16.47-54.48-5.51-62.6S1216.51,131.63,1205.74,139Z" transform="translate(-1043.24 -108.61)"/><path class="cls-3" d="M1252,158.4s1-21.82,13.08-36,28.89,35.3,29.94,48.41,7,55.88-28.52,48.87S1252,158.4,1252,158.4Z" transform="translate(-1043.24 -108.61)"/><path class="cls-4" d="M1294.45,516.23s-44.66-110.69-20.79-174.91-11.76-123.61-11.76-123.61l11.68-2.76a273.37,273.37,0,0,0,7.13,30.17c4.66,15.34,15.69,45.74,2.86,99-20.76,86.08,12,159.51,24.51,168.89S1294.45,516.23,1294.45,516.23Z" transform="translate(-1043.24 -108.61)"/><path class="cls-5" d="M1242.91,124s-17.14,9.71-18.22,40,6.59,66.68,34.81,62.93S1297,184,1280.3,167.55,1255.75,121.71,1242.91,124Z" transform="translate(-1043.24 -108.61)"/><path class="cls-4" d="M1301.21,518.74s-4.35-57.54-35.41-75.89c-38-22.46-47.6-71-47.6-71S1209,447.49,1251.58,474,1301.21,518.74,1301.21,518.74Z" transform="translate(-1043.24 -108.61)"/><path class="cls-4" d="M1287,470.24s10.58-91.79,41.35-96.62c0,0-22.66,23.38-19.23,64.25,3,35.89-18,67.41-18,67.41Z" transform="translate(-1043.24 -108.61)"/><path class="cls-1" d="M1457.66,175.31S1446.2,118.9,1429.61,111s-9.24,48.88-5,58S1452.45,184.58,1457.66,175.31Z" transform="translate(-1043.24 -108.61)"/><path class="cls-2" d="M1452.68,108.61s18.37,7.1,23.86,36.86,3.23,66.92-25.23,67.34-43.33-36.89-29.25-55.61S1439.64,108.26,1452.68,108.61Z" transform="translate(-1043.24 -108.61)"/><path class="cls-3" d="M1424.31,150s-12.66-17.8-30.47-23.16-5.19,45.32,1,56.91,24.34,50.79,50.44,25.65S1424.31,150,1424.31,150Z" transform="translate(-1043.24 -108.61)"/><path class="cls-4" d="M1582.34,473.82S1560,356.57,1505.13,315.5s-57-110.29-57-110.29l-11.32,4a271.65,271.65,0,0,1,10.34,29.23c4.39,15.42,11.57,47,51.2,84.78,64,61.14,76.26,140.62,70.83,155.27S1582.34,473.82,1582.34,473.82Z" transform="translate(-1043.24 -108.61)"/><path class="cls-5" d="M1413.3,116.11s19.66-1.12,37,23.72,30.55,59.63,4.8,71.76-54.69-15.72-49.59-38.59S1401.28,121.17,1413.3,116.11Z" transform="translate(-1043.24 -108.61)"/><path class="cls-4" d="M1578,479.59s-27.5-50.74-11.32-83c19.8-39.48,1.61-85.43,1.61-85.43s48.7,58.54,27.19,103.88S1578,479.59,1578,479.59Z" transform="translate(-1043.24 -108.61)"/><path class="cls-4" d="M1563.73,431.1s-58.59-71.44-87.07-58.85c0,0,31.7,7.4,50.95,43.61,16.9,31.8,51.64,46.92,51.64,46.92Z" transform="translate(-1043.24 -108.61)"/><path class="cls-1" d="M1121.69,342.38s-20.78-53.68-38.46-58.7-.89,49.73,4.86,58S1118.12,352.39,1121.69,342.38Z" transform="translate(-1043.24 -108.61)"/><path class="cls-2" d="M1105.57,277.47s19.31,3.9,29.72,32.32,14.43,65.43-13.55,70.62-48.92-29.08-38.18-49.9S1092.67,279.31,1105.57,277.47Z" transform="translate(-1043.24 -108.61)"/><path class="cls-3" d="M1084.56,323s-15.47-15.42-33.93-17.72,2.51,45.55,10.58,55.93,32.52,46,54,16.8S1084.56,323,1084.56,323Z" transform="translate(-1043.24 -108.61)"/><path class="cls-4" d="M1294.76,615.69S1253,503.87,1192,472.6s-74.76-99.13-74.76-99.13l-10.48,5.84a271.79,271.79,0,0,1,15.1,27.08c6.92,14.46,19.3,44.34,64.72,75,73.42,49.51,98.8,125.81,95.91,141.16S1294.76,615.69,1294.76,615.69Z" transform="translate(-1043.24 -108.61)"/><path class="cls-5" d="M1068,291.48s19.2-4.41,40.41,17.17,40.15,53.65,16.8,69.93-56.56-6.3-55.38-29.71S1057,298.48,1068,291.48Z" transform="translate(-1043.24 -108.61)"/><path class="cls-4" d="M1291.47,622.11s-35.63-45.4-25.1-79.9c12.89-42.24-12.77-84.48-12.77-84.48s57.85,49.53,44.26,97.83S1291.47,622.11,1291.47,622.11Z" transform="translate(-1043.24 -108.61)"/><path class="cls-4" d="M1269.24,576.7s-69.77-60.57-95.73-43.37c0,0,32.5,2,57.56,34.43,22,28.51,58.79,37.57,58.79,37.57Z" transform="translate(-1043.24 -108.61)"/><rect class="cls-6" x="68.76" y="67.39" width="482" height="482" rx="6.07"/><text class="cls-7" transform="translate(113.99 111.57)"><tspan class="cls-8">	</tspan><tspan x="36" y="0" xml:space="preserve">        To my favourite person</tspan><tspan class="cls-9"><tspan x="0" y="46" xml:space="preserve">     Happy Birthday, dear... You’re 24 already but even </tspan><tspan x="0" y="68">if you’re getting older, you’re still my baby hehe... </tspan><tspan x="0" y="90">I know that you’ve been working really hard these </tspan><tspan x="0" y="112" xml:space="preserve">days and things like stress get to you sometimes,  </tspan><tspan x="0" y="134">just keep in mind that I’m here and you don’t have to </tspan><tspan x="0" y="156">worry about a single thing cuz I got you.</tspan><tspan x="0" y="178"> </tspan><tspan x="0" y="200" xml:space="preserve">       I don’t have a lot to say but I’ll let you know that</tspan><tspan x="0" y="222">I love you, Devia Rajkumari, you’re the best you’re </tspan><tspan x="0" y="244">doing great and I’m really proud of you. </tspan><tspan x="0" y="288">And for today, let’s forget everything and have some </tspan><tspan x="0" y="310" xml:space="preserve">fuuunnn... Shall we?  </tspan></tspan><tspan class="cls-10"><tspan x="0" y="328">	</tspan></tspan><tspan class="cls-11"><tspan class="cls-12" x="0" y="358">	</tspan><tspan x="36" y="358"> </tspan></tspan></text><text class="cls-13" transform="translate(443.86 512.16)">- Albert</text><path class="cls-14" d="M1180,611.29a4.76,4.76,0,0,1-1.38,3.34l-6.93,6.92-.12-.12-6.56-6.55-.37-.38a4.72,4.72,0,1,1,6.68-6.67l.37.37.25-.25a4.72,4.72,0,0,1,8.06,3.34Z" transform="translate(-1043.24 -108.61)"/></svg>