<svg id="letter_closed" data-name="letter closed" xmlns="http://www.w3.org/2000/svg" viewBox="0 0 447 260.36"><defs><style>.cls-1{fill:#ffe6f0;}.cls-2{fill:#fff0f6;}.cls-3{fill:#fff5f9;}.cls-4{fill:#ff91a4;}</style></defs><rect class="cls-1" width="447" height="260.36"/><path class="cls-2" d="M352.73,555,143,705.18H590L380.28,555A23.65,23.65,0,0,0,352.73,555Z" transform="translate(-143 -444.82)"/><path class="cls-3" d="M354.05,583.5,143,444.82H590L379,583.5A22.66,22.66,0,0,1,354.05,583.5Z" transform="translate(-143 -444.82)"/><path class="cls-4" d="M383,527.69a9.23,9.23,0,0,1-2.7,6.53l-13.55,13.56-.24-.24-12.82-12.83L353,534A9.23,9.23,0,0,1,366,520.93l.73.72.49-.49A9.24,9.24,0,0,1,383,527.7Z" transform="translate(-143 -444.82)"/></svg>