<svg id="letter_open" data-name="letter open" xmlns="http://www.w3.org/2000/svg" xmlns:xlink="http://www.w3.org/1999/xlink" viewBox="0 0 447 402.59"><defs><style>.cls-1{fill:url(#linear-gradient);}.cls-2{fill:#fff;}.cls-3{fill:#ffe6f0;}.cls-4{fill:#fff0f6;}</style><linearGradient id="linear-gradient" x1="1224.44" y1="247.49" x2="1228.56" y2="642.34" gradientUnits="userSpaceOnUse"><stop offset="0" stop-color="#ffe6f0"/><stop offset="0.2" stop-color="#ffe1ed"/><stop offset="0.44" stop-color="#ffd2e4"/><stop offset="0.7" stop-color="#ffbad5"/><stop offset="0.97" stop-color="#ff99c1"/><stop offset="1" stop-color="#ff95bf"/></linearGradient></defs><path class="cls-1" d="M1450,445h-1L1239.53,554.49a23.65,23.65,0,0,0-26.36.21L1003.3,445h-.3l.27-.18,210.78-138.5a22.66,22.66,0,0,1,24.9,0l210.78,138.5Z" transform="translate(-1003 -302.59)"/><polygon class="cls-2" points="0.27 142.23 0 142.41 0 142.23 0.27 142.23"/><polygon points="0.27 142.23 0 142.23 0 142.41 0.27 142.23 0.27 142.23"/><polygon class="cls-2" points="447 142.23 447 142.41 446.73 142.23 447 142.23"/><polygon points="447 142.23 446.73 142.23 447 142.41 447 142.23 447 142.23"/><path class="cls-3" d="M1213.86,594.94,1003.3,705V445l209.87,109.7.69.36A22.5,22.5,0,0,1,1213.86,594.94Z" transform="translate(-1003 -302.59)"/><path class="cls-3" d="M1449,444V704L1238.44,593.94a22.5,22.5,0,0,1,0-39.88l1.09-.57Z" transform="translate(-1003 -302.59)"/><path class="cls-4" d="M1450,705.18H1003l.3-.21,209.43-150,.44-.31a23.65,23.65,0,0,1,26.36-.21l.75.52L1449,704.46Z" transform="translate(-1003 -302.59)"/></svg>