<svg id="scissor" xmlns="http://www.w3.org/2000/svg" viewBox="0 0 467.53 436.15"><defs><style>.cls-1{fill:#ccc;}.cls-2{fill:#e82c65;}.cls-3{fill:#e6e6e6;}</style></defs><path class="cls-1" d="M893.45,479,1163,423.82s-1.55,55.87-70.18,68.23-149.91,30.08-149.91,30.08-18.06-15.24-39.85-12Z" transform="translate(-695.47 -300.86)"/><path class="cls-2" d="M708.68,438c-39.85,59,19.75,113.12,56.26,105.76s142.27-31.16,142.27-31.16l-6.5-39.32c-13.82,3.18-56,.87-79.14-23.87S744.69,384.66,708.68,438Zm61.13,7.42a31.37,31.37,0,1,1-39.08,21A31.37,31.37,0,0,1,769.81,445.41Z" transform="translate(-695.47 -300.86)"/><path class="cls-3" d="M939.94,544.48l130.73-242.11s-53.93-14.66-85.59,47.48S913,484.68,913,484.68s9.38,21.69,0,41.62Z" transform="translate(-695.47 -300.86)"/><path class="cls-2" d="M947.56,621.86c-17-29.32-7-70.35,0-82.66L911.8,521.61S858.46,616,840.87,648.82s17,105.52,85,84.42C987.33,714.16,964.56,651.17,947.56,621.86Zm-42.5,82.07a31.37,31.37,0,1,1,31.36-31.37A31.36,31.36,0,0,1,905.06,703.93Z" transform="translate(-695.47 -300.86)"/></svg>